<?xml version="1.0" encoding="utf-8"?>
<!-- Generator: Adobe Illustrator 27.3.1, SVG Export Plug-In . SVG Version: 6.00 Build 0)  -->
<svg version="1.1" id="Layer_1" xmlns="http://www.w3.org/2000/svg" xmlns:xlink="http://www.w3.org/1999/xlink" x="0px" y="0px"
	 viewBox="0 0 216 87.32" style="enable-background:new 0 0 216 87.32;" xml:space="preserve">
<style type="text/css">
	.st0{fill:#0A4396;}
	.st1{fill:#FFFFFF;}
	.st2{fill:#FF1614;}
</style>
<rect x="4.98" y="5.53" class="st0" width="206.26" height="76.52"/>
<g>
	<path class="st1" d="M55.39,30.15c-0.11,0.49-0.62,2.44-0.81,3.01h-9.19v-0.53c1.76-0.13,1.89-0.3,1.89-1.85V23.3
		c0-1.68-0.21-1.78-1.63-1.91v-0.53h5.79c1.78,0,2.51-0.02,2.74-0.04c0.02,0.47,0.09,1.89,0.17,2.89l-0.57,0.09
		c-0.17-0.64-0.36-1.04-0.57-1.44c-0.3-0.62-0.74-0.76-1.87-0.76h-1.8c-0.59,0-0.62,0.06-0.62,0.6v4.18h2.1
		c1.42,0,1.51-0.28,1.74-1.57h0.59v3.89h-0.59c-0.25-1.36-0.4-1.55-1.76-1.55h-2.08v3.76c0,1.32,0.42,1.44,1.36,1.46h1.76
		c1.15,0,1.34-0.17,1.76-0.66c0.36-0.4,0.76-1.17,1.02-1.74L55.39,30.15z"/>
	<path class="st1" d="M69.62,21.39c-1.19,0.08-1.63,0.38-1.66,1.25c-0.02,0.44-0.06,1.23-0.06,2.97v2.04c0,1.93-0.23,3.4-1.32,4.56
		c-0.89,0.93-2.17,1.21-3.48,1.21c-1.1,0-2.27-0.23-3.1-0.87c-1.13-0.87-1.68-2.17-1.68-4.39v-4.82c0-1.7-0.15-1.81-1.66-1.95v-0.53
		h4.97v0.53c-1.51,0.09-1.66,0.25-1.66,1.95v4.73c0,2.76,1.3,4.27,3.57,4.27c2.68,0,3.54-1.66,3.54-4.8v-1.93
		c0-1.74-0.06-2.46-0.09-2.97c-0.06-0.85-0.49-1.17-1.89-1.25v-0.53h4.54V21.39z"/>
	<path class="st1" d="M75.56,20.87c1.34,0,2.42,0.25,3.19,0.81c0.74,0.55,1.25,1.44,1.25,2.68c0,2.76-2.36,3.88-4.16,3.88
		c-0.21,0-0.4-0.02-0.51-0.04l-1.3-0.34v2.95c0,1.59,0.13,1.63,1.87,1.81v0.53h-5.22v-0.53c1.63-0.17,1.7-0.28,1.7-1.85v-7.51
		c0-1.68-0.21-1.72-1.7-1.87v-0.53H75.56z M74.02,27.2c0.23,0.11,0.74,0.25,1.38,0.25c1.27,0,2.84-0.64,2.84-3.02
		c0-2.08-1.36-2.91-2.95-2.91c-0.55,0-0.95,0.09-1.06,0.23c-0.15,0.13-0.21,0.36-0.21,0.87V27.2z"/>
	<path class="st1" d="M94.72,21.39C93.15,21.55,93,21.64,93,23.23v7.58c0,1.59,0.17,1.64,1.72,1.81v0.53h-5.07v-0.53
		c1.57-0.19,1.72-0.23,1.72-1.81v-3.78h-6.47v3.78c0,1.57,0.15,1.63,1.7,1.81v0.53h-5.05v-0.53c1.53-0.17,1.7-0.23,1.7-1.81v-7.58
		c0-1.59-0.17-1.68-1.7-1.83v-0.53h5.05v0.53c-1.51,0.13-1.7,0.26-1.7,1.83v3.01h6.47v-3.01c0-1.57-0.21-1.7-1.72-1.83v-0.53h5.07
		V21.39z"/>
	<path class="st1" d="M102.91,20.6c3.23,0,6.13,2.48,6.13,6.24c0,4.06-2.76,6.6-6.24,6.6c-3.63,0-6.28-2.76-6.28-6.31
		C96.52,23.74,98.92,20.6,102.91,20.6z M102.53,21.3c-2.12,0-4.05,1.78-4.05,5.31c0,3.52,1.93,6.11,4.61,6.11
		c2.29,0,4.01-1.7,4.01-5.35C107.1,23.4,105,21.3,102.53,21.3z"/>
	<path class="st1" d="M122.07,33.31c-0.25,0-0.45-0.02-0.7-0.04c-1.38-0.09-2.12-0.45-2.95-1.63c-0.7-0.96-1.38-2.15-1.99-3.12
		c-0.38-0.6-0.62-0.72-1.59-0.72h-0.66v2.97c0,1.61,0.21,1.7,1.72,1.85v0.53h-5.05v-0.53c1.57-0.17,1.7-0.25,1.7-1.85v-7.54
		c0-1.61-0.21-1.66-1.7-1.83v-0.53h4.82c1.38,0,2.31,0.17,3.02,0.64c0.78,0.49,1.29,1.34,1.29,2.5c0,1.63-1.04,2.65-2.44,3.25
		c0.34,0.59,1.15,1.85,1.72,2.7c0.7,1,1.06,1.47,1.49,1.95c0.51,0.55,0.95,0.76,1.38,0.87L122.07,33.31z M115.1,27.16
		c0.98,0,1.61-0.15,2.08-0.55c0.74-0.55,1.04-1.3,1.04-2.33c0-2.02-1.34-2.76-2.8-2.76c-0.55,0-0.87,0.08-1,0.19
		c-0.17,0.13-0.23,0.32-0.23,0.81v4.63H115.1z"/>
	<path class="st1" d="M122.81,33.15v-0.53c1.55-0.17,1.7-0.25,1.7-1.85v-7.51c0-1.63-0.15-1.7-1.7-1.87v-0.53h5.07v0.53
		c-1.57,0.17-1.72,0.25-1.72,1.87v7.51c0,1.63,0.15,1.68,1.72,1.85v0.53H122.81z"/>
	<path class="st1" d="M136.45,33.15v-0.53c1.23-0.15,1.38-0.34,1.12-1.06c-0.25-0.74-0.62-1.68-1.02-2.87h-4.08
		c-0.3,0.85-0.59,1.59-0.85,2.36c-0.42,1.23-0.15,1.38,1.4,1.57v0.53h-4.37v-0.53c1.19-0.15,1.49-0.28,2.16-1.99l3.91-9.93
		l0.61-0.11c1.19,3.23,2.5,6.81,3.69,10.08c0.6,1.64,0.78,1.8,2.12,1.95v0.53H136.45z M134.56,23.08c-0.6,1.63-1.25,3.35-1.81,4.84
		h3.54L134.56,23.08z"/>
	<path class="st1" d="M52.14,40.79c-0.32-1.25-0.85-2.48-2.63-2.48c-1.47,0-1.99,1.08-1.99,2.06c0,1.3,0.83,1.97,2.4,2.78
		c2.27,1.17,3.25,2.04,3.25,3.84c0,1.99-1.72,3.5-4.16,3.5c-1.13,0-2.12-0.32-2.89-0.62c-0.15-0.53-0.38-1.82-0.51-2.84l0.59-0.15
		c0.38,1.27,1.21,2.91,3.18,2.91c1.36,0,2.19-0.95,2.19-2.17c0-1.46-0.77-2.04-2.44-2.95c-1.98-1.08-3.1-1.99-3.1-3.74
		c0-1.68,1.4-3.27,3.89-3.27c1.06,0,2.1,0.28,2.5,0.36c0.08,0.68,0.15,1.44,0.3,2.67L52.14,40.79z"/>
	<path class="st1" d="M59.68,37.91c1.34,0,2.42,0.25,3.19,0.81c0.74,0.55,1.25,1.44,1.25,2.68c0,2.76-2.36,3.88-4.16,3.88
		c-0.21,0-0.4-0.02-0.51-0.04l-1.3-0.34v2.95c0,1.59,0.13,1.63,1.87,1.82v0.53H54.8v-0.53c1.63-0.17,1.7-0.28,1.7-1.85v-7.51
		c0-1.68-0.21-1.72-1.7-1.87v-0.53H59.68z M58.15,44.25c0.23,0.11,0.74,0.25,1.38,0.25c1.27,0,2.84-0.64,2.84-3.02
		c0-2.08-1.36-2.91-2.95-2.91c-0.55,0-0.95,0.09-1.06,0.23c-0.15,0.13-0.21,0.36-0.21,0.87V44.25z"/>
	<path class="st1" d="M72.47,37.65c3.23,0,6.13,2.48,6.13,6.24c0,4.06-2.76,6.6-6.24,6.6c-3.63,0-6.28-2.76-6.28-6.31
		C66.08,40.79,68.49,37.65,72.47,37.65z M72.1,38.35c-2.12,0-4.05,1.78-4.05,5.31c0,3.52,1.93,6.11,4.61,6.11
		c2.29,0,4.01-1.7,4.01-5.35C76.67,40.45,74.57,38.35,72.1,38.35z"/>
	<path class="st1" d="M91.64,50.35c-0.25,0-0.45-0.02-0.7-0.04c-1.38-0.09-2.12-0.45-2.95-1.63c-0.7-0.96-1.38-2.16-1.99-3.12
		c-0.38-0.61-0.62-0.72-1.59-0.72h-0.66v2.97c0,1.61,0.21,1.7,1.72,1.85v0.53h-5.05v-0.53c1.57-0.17,1.7-0.25,1.7-1.85v-7.54
		c0-1.61-0.21-1.66-1.7-1.83v-0.53h4.82c1.38,0,2.31,0.17,3.02,0.64c0.77,0.49,1.29,1.34,1.29,2.5c0,1.63-1.04,2.65-2.44,3.25
		c0.34,0.59,1.15,1.85,1.72,2.7c0.7,1,1.06,1.47,1.49,1.95c0.51,0.55,0.95,0.76,1.38,0.87L91.64,50.35z M84.66,44.21
		c0.98,0,1.61-0.15,2.08-0.55c0.74-0.55,1.04-1.3,1.04-2.33c0-2.02-1.34-2.76-2.8-2.76c-0.55,0-0.87,0.08-1,0.19
		c-0.17,0.13-0.23,0.32-0.23,0.81v4.63H84.66z"/>
	<path class="st1" d="M101.79,40.88c-0.17-0.6-0.4-1.23-0.6-1.57c-0.3-0.51-0.49-0.64-1.53-0.64h-1.89v9.21
		c0,1.47,0.15,1.68,1.95,1.8v0.53h-5.5v-0.53c1.76-0.11,1.91-0.3,1.91-1.8v-9.21H94.4c-1.04,0-1.34,0.11-1.66,0.68
		c-0.23,0.38-0.38,0.83-0.62,1.53h-0.57c0.11-1.15,0.23-2.34,0.28-3.4h0.44c0.28,0.45,0.49,0.44,1.02,0.44h7.49
		c0.53,0,0.68-0.08,0.96-0.44h0.45c0,0.89,0.08,2.25,0.17,3.35L101.79,40.88z"/>
	<path class="st1" d="M110.58,40.79c-0.32-1.25-0.85-2.48-2.63-2.48c-1.47,0-1.99,1.08-1.99,2.06c0,1.3,0.83,1.97,2.4,2.78
		c2.27,1.17,3.25,2.04,3.25,3.84c0,1.99-1.72,3.5-4.16,3.5c-1.13,0-2.12-0.32-2.89-0.62c-0.15-0.53-0.38-1.82-0.51-2.84l0.59-0.15
		c0.38,1.27,1.21,2.91,3.18,2.91c1.36,0,2.19-0.95,2.19-2.17c0-1.46-0.78-2.04-2.44-2.95c-1.98-1.08-3.1-1.99-3.1-3.74
		c0-1.68,1.4-3.27,3.89-3.27c1.06,0,2.1,0.28,2.5,0.36c0.08,0.68,0.15,1.44,0.3,2.67L110.58,40.79z"/>
	<path class="st1" d="M56.11,67.25v-0.53c1.55-0.15,1.61-0.26,1.59-2.29l0.02-7.71c-1.55,3.46-4.05,8.87-4.71,10.53h-0.49
		c-0.64-1.72-2.78-6.92-4.22-10.34c-0.32,6.62-0.34,8.11-0.34,8.47c0.02,1.06,0.49,1.21,1.78,1.34v0.53h-4.48v-0.53
		c1.1-0.11,1.55-0.34,1.7-1.36c0.11-0.83,0.13-1.51,0.62-8.41c0.08-0.98-0.11-1.3-1.78-1.46v-0.53h3.29l4.18,9.59l4.48-9.59h3.31
		v0.53c-1.63,0.19-1.83,0.36-1.8,1.68l0.08,7.26c0.08,2.02,0.13,2.12,1.8,2.29v0.53H56.11z"/>
	<path class="st1" d="M69.64,67.25v-0.53c1.23-0.15,1.38-0.34,1.12-1.06c-0.25-0.74-0.62-1.68-1.02-2.87h-4.08
		c-0.3,0.85-0.59,1.59-0.85,2.36c-0.42,1.23-0.15,1.38,1.4,1.57v0.53h-4.37v-0.53c1.19-0.15,1.49-0.28,2.16-1.99l3.91-9.92l0.6-0.11
		c1.19,3.23,2.5,6.81,3.69,10.08c0.6,1.64,0.77,1.8,2.12,1.95v0.53H69.64z M67.75,57.17c-0.6,1.63-1.25,3.35-1.81,4.84h3.54
		L67.75,57.17z"/>
	<path class="st1" d="M88.13,55.49c-1.21,0.13-1.61,0.32-1.66,1.19c-0.02,0.61-0.06,1.4-0.06,3.16v7.58h-0.72l-8.09-9.89v4.73
		c0,1.7,0.06,2.55,0.09,3.1c0.04,0.96,0.51,1.25,1.87,1.36v0.53h-4.59v-0.53c1.17-0.09,1.63-0.38,1.7-1.3
		c0.06-0.6,0.09-1.46,0.09-3.18v-4.82c0-0.53-0.04-0.83-0.38-1.25c-0.36-0.47-0.76-0.59-1.68-0.68v-0.53h2.84l8.02,9.51v-4.63
		c0-1.76-0.04-2.57-0.09-3.14c-0.06-0.85-0.49-1.12-2-1.21v-0.53h4.67V55.49z"/>
	<path class="st1" d="M96.1,67.25v-0.53c1.23-0.15,1.38-0.34,1.12-1.06c-0.25-0.74-0.62-1.68-1.02-2.87h-4.08
		c-0.3,0.85-0.59,1.59-0.85,2.36c-0.42,1.23-0.15,1.38,1.4,1.57v0.53h-4.37v-0.53c1.19-0.15,1.49-0.28,2.16-1.99l3.91-9.92l0.6-0.11
		c1.19,3.23,2.5,6.81,3.69,10.08c0.6,1.64,0.77,1.8,2.12,1.95v0.53H96.1z M94.21,57.17c-0.6,1.63-1.25,3.35-1.81,4.84h3.54
		L94.21,57.17z"/>
	<path class="st1" d="M113.76,62.09c-1.17,0.15-1.25,0.26-1.25,1.38v1.59c0,0.66,0.02,1.29,0.11,1.8c-1.17,0.26-2.7,0.68-4.29,0.68
		c-4.29,0-6.9-2.67-6.9-6.47c0-3.99,3.25-6.37,7.03-6.37c1.93,0,3.35,0.38,3.93,0.47c0.04,0.7,0.13,1.85,0.28,3.04l-0.57,0.11
		c-0.45-1.61-1-2.29-2.19-2.68c-0.44-0.15-1.21-0.25-1.76-0.25c-2.89,0-4.76,1.98-4.76,5.44c0,3.01,1.55,5.99,5.22,5.99
		c0.64,0,1.23-0.13,1.61-0.32c0.4-0.23,0.64-0.43,0.64-1.21v-1.55c0-1.38-0.15-1.53-1.97-1.66v-0.55h4.86V62.09z"/>
	<path class="st1" d="M125.04,64.24c-0.11,0.49-0.62,2.44-0.81,3.01h-9.19v-0.53c1.76-0.13,1.89-0.3,1.89-1.85V57.4
		c0-1.68-0.21-1.78-1.63-1.91v-0.53h5.79c1.78,0,2.51-0.02,2.74-0.04c0.02,0.47,0.09,1.89,0.17,2.89l-0.57,0.09
		c-0.17-0.64-0.36-1.04-0.57-1.44c-0.3-0.62-0.74-0.76-1.87-0.76h-1.8c-0.59,0-0.62,0.06-0.62,0.6v4.18h2.1
		c1.42,0,1.51-0.28,1.74-1.57H123v3.89h-0.59c-0.25-1.36-0.4-1.55-1.76-1.55h-2.08v3.76c0,1.32,0.42,1.44,1.36,1.46h1.76
		c1.15,0,1.34-0.17,1.76-0.66c0.36-0.4,0.76-1.17,1.02-1.74L125.04,64.24z"/>
	<path class="st1" d="M136.89,67.25v-0.53c1.55-0.15,1.61-0.26,1.59-2.29l0.02-7.71c-1.55,3.46-4.05,8.87-4.71,10.53h-0.49
		c-0.64-1.72-2.78-6.92-4.22-10.34c-0.32,6.62-0.34,8.11-0.34,8.47c0.02,1.06,0.49,1.21,1.78,1.34v0.53h-4.48v-0.53
		c1.1-0.11,1.55-0.34,1.7-1.36c0.11-0.83,0.13-1.51,0.62-8.41c0.08-0.98-0.11-1.3-1.78-1.46v-0.53h3.29l4.18,9.59l4.48-9.59h3.31
		v0.53c-1.63,0.19-1.83,0.36-1.8,1.68l0.08,7.26c0.08,2.02,0.13,2.12,1.8,2.29v0.53H136.89z"/>
	<path class="st1" d="M153.43,64.24c-0.11,0.49-0.62,2.44-0.81,3.01h-9.19v-0.53c1.76-0.13,1.89-0.3,1.89-1.85V57.4
		c0-1.68-0.21-1.78-1.63-1.91v-0.53h5.79c1.78,0,2.51-0.02,2.74-0.04c0.02,0.47,0.09,1.89,0.17,2.89l-0.57,0.09
		c-0.17-0.64-0.36-1.04-0.57-1.44c-0.3-0.62-0.74-0.76-1.87-0.76h-1.8c-0.59,0-0.62,0.06-0.62,0.6v4.18h2.1
		c1.42,0,1.51-0.28,1.74-1.57h0.59v3.89h-0.59c-0.25-1.36-0.4-1.55-1.76-1.55h-2.08v3.76c0,1.32,0.42,1.44,1.36,1.46h1.76
		c1.15,0,1.34-0.17,1.76-0.66c0.36-0.4,0.76-1.17,1.02-1.74L153.43,64.24z"/>
	<path class="st1" d="M167.81,55.49c-1.21,0.13-1.61,0.32-1.66,1.19c-0.02,0.61-0.06,1.4-0.06,3.16v7.58h-0.72l-8.09-9.89v4.73
		c0,1.7,0.06,2.55,0.09,3.1c0.04,0.96,0.51,1.25,1.87,1.36v0.53h-4.59v-0.53c1.17-0.09,1.63-0.38,1.7-1.3
		c0.06-0.6,0.09-1.46,0.09-3.18v-4.82c0-0.53-0.04-0.83-0.38-1.25c-0.36-0.47-0.76-0.59-1.68-0.68v-0.53h2.84l8.02,9.51v-4.63
		c0-1.76-0.04-2.57-0.09-3.14c-0.06-0.85-0.49-1.12-2-1.21v-0.53h4.67V55.49z"/>
	<path class="st1" d="M179.42,57.93c-0.17-0.61-0.4-1.23-0.61-1.57c-0.3-0.51-0.49-0.64-1.53-0.64h-1.89v9.21
		c0,1.47,0.15,1.68,1.95,1.8v0.53h-5.5v-0.53c1.76-0.11,1.91-0.3,1.91-1.8v-9.21h-1.72c-1.04,0-1.34,0.11-1.66,0.68
		c-0.23,0.38-0.38,0.83-0.62,1.53h-0.57c0.11-1.15,0.23-2.34,0.28-3.4h0.43c0.28,0.45,0.49,0.43,1.02,0.43h7.49
		c0.53,0,0.68-0.08,0.96-0.43h0.45c0,0.89,0.08,2.25,0.17,3.35L179.42,57.93z"/>
</g>
<rect x="17.17" y="19.16" class="st2" width="1.98" height="49.48"/>
<rect x="24.73" y="19.16" class="st2" width="1.98" height="49.48"/>
<rect x="32.45" y="19.16" class="st2" width="1.98" height="49.48"/>
<g>
	<g>
		<path class="st1" d="M186.77,67.25c-1.62,0-2.94-1.32-2.94-2.94c0-1.62,1.32-2.94,2.94-2.94c1.62,0,2.94,1.32,2.94,2.94
			C189.7,65.93,188.39,67.25,186.77,67.25z M186.77,61.77c-1.4,0-2.54,1.14-2.54,2.54c0,1.4,1.14,2.54,2.54,2.54
			s2.54-1.14,2.54-2.54C189.3,62.91,188.16,61.77,186.77,61.77z"/>
	</g>
	<g>
		<path class="st1" d="M187.93,65.34c-0.05,0-0.09,0-0.13-0.01c-0.26-0.02-0.41-0.09-0.57-0.31c-0.13-0.19-0.26-0.41-0.38-0.6
			c-0.07-0.12-0.12-0.14-0.31-0.14h-0.13v0.57c0,0.31,0.04,0.33,0.33,0.36v0.1h-0.97v-0.1c0.3-0.03,0.33-0.05,0.33-0.36v-1.45
			c0-0.31-0.04-0.32-0.33-0.35v-0.1h0.93c0.26,0,0.44,0.03,0.58,0.12c0.15,0.09,0.25,0.26,0.25,0.48c0,0.31-0.2,0.51-0.47,0.63
			c0.07,0.11,0.22,0.36,0.33,0.52c0.13,0.19,0.2,0.28,0.29,0.37c0.1,0.11,0.18,0.15,0.26,0.17L187.93,65.34z M186.59,64.16
			c0.19,0,0.31-0.03,0.4-0.11c0.14-0.11,0.2-0.25,0.2-0.45c0-0.39-0.26-0.53-0.54-0.53c-0.1,0-0.17,0.01-0.19,0.04
			c-0.03,0.03-0.04,0.06-0.04,0.16v0.89H186.59z"/>
	</g>
</g>
</svg>
